<?xml version="1.0" encoding="utf-8"?>
<!-- Generator: Adobe Illustrator 16.0.0, SVG Export Plug-In . SVG Version: 6.00 Build 0)  -->
<!DOCTYPE svg PUBLIC "-//W3C//DTD SVG 1.1//EN" "http://www.w3.org/Graphics/SVG/1.1/DTD/svg11.dtd">
<svg version="1.1" id="Layer_1" xmlns="http://www.w3.org/2000/svg" xmlns:xlink="http://www.w3.org/1999/xlink" x="0px" y="0px"
	 width="2562px" height="1651px" viewBox="0 0 2562 1651" enable-background="new 0 0 2562 1651" xml:space="preserve">
<rect x="4" y="2" fill="#F7931E" stroke="#FFFFFF" stroke-miterlimit="10" width="2558" height="1649"/>
<g display="none">
	<g display="inline">
		<path fill="#FFFFFF" d="M484.021,484.568c-2.31,0-6.32,5.936-8.539,11.418c-0.178,0.436,0.024,0.94,0.398,1.229
			c0.369,0.295,0.882,0.331,1.29,0.098c1.114-0.63,2.532-1.249,3.985-1.562v6.666c0,3.425-2.785,6.212-6.211,6.212
			c-3.424,0-6.208-2.787-6.208-6.212v-69.916c0-1.584-1.282-2.866-2.866-2.866s-2.865,1.282-2.865,2.866v69.916
			c0,6.583,5.357,11.945,11.941,11.945c6.586,0,11.94-5.362,11.94-11.945v-14.985C486.888,485.85,485.607,484.568,484.021,484.568z"
			/>
		<path fill="#FFFFFF" d="M549.82,490.151c0-3.788,1.144-7.975,2.424-10.982c0.23-0.541-0.022-1.147-0.614-1.469
			c-0.597-0.326-1.387-0.284-1.929,0.088c-3.025,2.098-4.894,4.559-6.097,6.67c-4.692-2.52-11.675-4.609-18.032-5.94
			c-0.199-2.801,0.311-5.31,0.756-6.875c0.115-0.401,0.006-0.829-0.279-1.13c-0.289-0.302-0.711-0.429-1.115-0.337
			c-3.732,0.86-7.607,4.219-10.123,6.771c-0.496-0.027-0.996-0.05-1.414-0.05c-8.76,0-19.824,5.991-19.824,13.383
			c0,7.391,11.064,13.378,19.824,13.378c0.495,0,1.064-0.023,1.666-0.064c1.813,1.964,5.201,5.215,8.471,5.968
			c0.313,0.068,0.633-0.027,0.854-0.257s0.299-0.556,0.211-0.858c-0.381-1.354-0.816-3.646-0.463-6.125
			c6.717-1.313,14.416-3.512,19.475-6.229c1.198,2.121,3.066,4.582,6.092,6.675c0.542,0.372,1.332,0.414,1.929,0.088
			c0.587-0.321,0.845-0.923,0.614-1.474C550.959,498.378,549.82,493.934,549.82,490.151z M503.854,489.793
			c-1.462,0-2.648-1.188-2.648-2.649c0-1.464,1.187-2.653,2.648-2.653c1.473,0,2.654,1.189,2.654,2.653
			C506.508,488.604,505.326,489.793,503.854,489.793z"/>
		<path fill="#FFFFFF" d="M481.969,436.979c1.237,0,2.238-1.001,2.238-2.238s-1.001-2.238-2.238-2.238s-2.24,1.001-2.24,2.238
			S480.731,436.979,481.969,436.979z"/>
		<path fill="#FFFFFF" d="M490.618,450.772c1.536,0,2.778-1.242,2.778-2.778c0-1.533-1.242-2.775-2.778-2.775
			c-1.534,0-2.775,1.242-2.775,2.775C487.843,449.53,489.084,450.772,490.618,450.772z"/>
		<path fill="#FFFFFF" d="M485.998,460.803c-2.225,0-4.029,1.805-4.029,4.031c0,2.225,1.805,4.028,4.029,4.028
			c2.224,0,4.029-1.804,4.029-4.028C490.027,462.607,488.222,460.803,485.998,460.803z"/>
		<path fill="#FFFFFF" d="M494.573,476.194c0-1.253-1.017-2.27-2.274-2.27c-1.256,0-2.271,1.017-2.271,2.27
			c0,1.258,1.016,2.272,2.271,2.272C493.557,478.467,494.573,477.452,494.573,476.194z"/>
	</g>
	<g display="inline">
		<path fill="#FFFFFF" d="M610.998,559.713c3.646,0,6.631,7.691,6.915,17.463l7.106,7.109c0.143-1.841,0.234-3.707,0.234-5.607
			c0-19.105-7.557-35.573-11.665-43.121c-0.515-0.95-1.509-1.543-2.588-1.543c-1.078-0.002-2.072,0.59-2.591,1.538
			c-2.566,4.715-6.48,12.917-9.054,23.067l6.712,6.712C607.326,561.863,609.07,559.713,610.998,559.713z"/>
		<path fill="#FFFFFF" d="M610.998,597.635c-3.648,0-6.631-7.688-6.913-17.459l-7.106-7.108c-0.138,1.843-0.232,3.71-0.232,5.61
			c0,19.105,7.553,35.578,11.664,43.121c0.514,0.949,1.51,1.537,2.588,1.537c1.082,0,2.076-0.592,2.591-1.537
			c2.571-4.715,6.482-12.915,9.058-23.062l-6.717-6.722C614.672,595.486,612.927,597.635,610.998,597.635z"/>
		<path fill="#FFFFFF" d="M646.781,604.311l-6.996-7c-1.35-1.346-3.178-2.1-5.078-2.1c-0.863,0-1.707,0.176-2.498,0.469
			l-38.217-38.217c0.299-0.795,0.471-1.637,0.471-2.498c0-1.902-0.756-3.73-2.104-5.075l-7.001-7.001
			c-0.418-0.42-0.987-0.656-1.586-0.656c-0.593,0-1.162,0.236-1.586,0.656l-6.972,6.979c-0.877,0.874-0.877,2.295,0,3.17
			l7.001,7.003c2.048,2.048,5.024,2.583,7.575,1.635L628,599.885c-0.945,2.549-0.418,5.523,1.629,7.576l7.006,7
			c0.422,0.418,0.992,0.657,1.584,0.657c0.602,0,1.172-0.239,1.584-0.657l6.979-6.978
			C647.662,606.606,647.662,605.188,646.781,604.311z"/>
	</g>
	<g display="inline">
		<path fill="#FFFFFF" d="M693.939,498.258c-2.741,4.65-1.19,10.642,3.456,13.383l10.439,6.152c2.976,1.754,6.809,0.767,8.567-2.208
			l47.551-80.683c0.498-0.846,0.638-1.85,0.392-2.797c-0.243-0.947-0.853-1.758-1.698-2.256c-1.756-1.035-4.017-0.449-5.049,1.305
			l-42.89,72.778l-4.292-6.249c-1.893-2.75-5.06-4.348-8.401-4.232C698.682,493.566,695.633,495.379,693.939,498.258z"/>
		<path fill="#FFFFFF" d="M698.075,458.764c0-4.439-3.6-8.041-8.043-8.041c-4.439,0-8.044,3.602-8.044,8.041
			s3.604,8.039,8.044,8.039C694.476,466.803,698.075,463.203,698.075,458.764z"/>
		<path fill="#FFFFFF" d="M681.332,472.672c1.263,1.264,2.755,2.186,4.371,2.795l1.685,10.313c0.211,1.295,1.331,2.24,2.645,2.24
			c1.313,0,2.433-0.945,2.64-2.24l1.685-10.313c1.616-0.609,3.112-1.529,4.371-2.783c0.871-0.873,0.876-2.285,0.005-3.16
			c-0.873-0.871-2.286-0.875-3.159-0.006c-2.966,2.961-8.126,2.959-11.078,0c-0.873-0.877-2.286-0.879-3.159-0.002
			C680.465,470.387,680.465,471.799,681.332,472.672z"/>
	</g>
	<g display="inline">
		<path fill="#FFFFFF" d="M648.866,389.824l-17.62-17.61c-4.853-4.856-8.171-11.032-9.549-17.763v-0.004
			c2.599-8.698-0.193-19.361-7.988-27.163c-10.667-10.66-26.678-11.994-35.696-2.973c-9.022,9.023-7.686,25.034,2.974,35.694
			c7.803,7.801,18.459,10.588,27.154,7.998h0.011c6.729,1.368,12.903,4.691,17.761,9.549l17.61,17.611
			c1.479,1.469,3.866,1.469,5.344,0c0.707-0.707,1.103-1.671,1.103-2.672S649.573,390.536,648.866,389.824z M578.748,339.124h9.657
			v9.044h-7.637C579.375,345.182,578.694,342.076,578.748,339.124z M592.824,339.124h9.059l0.006,5.046
			c0.003,1.334,0.003,2.665,0.005,3.996l-9.069,0.002V339.124L592.824,339.124z M606.308,344.163l-0.006-5.039h7.623
			c1.391,2.984,2.075,6.09,2.02,9.042h-9.632C606.311,346.835,606.311,345.501,606.308,344.163z M611.246,334.705H606.3
			l-0.008-4.955c0.919,0.695,1.811,1.448,2.655,2.293C609.795,332.893,610.55,333.785,611.246,334.705z M601.871,327.068l0.01,7.637
			h-9.057v-9.656C595.779,324.993,598.888,325.675,601.871,327.068z M588.405,325.717v8.988h-8.989
			c0.65-2.116,1.762-4.039,3.354-5.635C584.363,327.477,586.29,326.366,588.405,325.717z M583.445,352.588h4.96v4.958
			c-0.917-0.698-1.815-1.453-2.66-2.3C584.9,354.4,584.143,353.503,583.445,352.588z M592.824,360.223v-7.635l9.077-0.003
			c0.005,3.36,0.01,6.604,0.01,9.657C598.941,362.305,595.822,361.622,592.824,360.223z M606.326,361.563
			c0-2.854-0.001-5.869-0.006-8.978h8.959c-0.652,2.118-1.764,4.042-3.356,5.636C610.342,359.802,608.428,360.91,606.326,361.563z"
			/>
		<path fill="#FFFFFF" d="M608.969,376.828c-1.448-0.52-3.042-0.441-4.431,0.215l-0.248,0.115l4.957,10.48l0.245-0.113
			c2.895-1.369,4.135-4.821,2.761-7.719C611.595,378.416,610.415,377.342,608.969,376.828z"/>
		<polygon fill="#FFFFFF" points="599.298,379.527 604.254,390.004 606.939,388.732 601.985,378.251 		"/>
		<path fill="#FFFFFF" d="M573.43,383.282c0,0.005-0.002,0-0.005,0c-1.145,0.542,0.508,6.428,3.68,13.144
			c3.175,6.717,6.683,11.722,7.821,11.189l0,0l16.728-16.381l-4.957-10.481L573.43,383.282z"/>
	</g>
	<g display="inline">
		
			<line fill="none" stroke="#FFFFFF" stroke-width="5" stroke-miterlimit="10" x1="542.668" y1="404.318" x2="679.332" y2="543.682"/>
		
			<line fill="none" stroke="#FFFFFF" stroke-width="5" stroke-miterlimit="10" x1="680.682" y1="405.668" x2="541.318" y2="542.332"/>
	</g>
</g>
<text transform="matrix(1 0 0 1 144.3926 902.7344)" fill="#FFFFFF" font-family="'ARDARLING'" font-size="319.0587">WeGo</text>
<line fill="none" stroke="#FFFFFF" stroke-width="7" stroke-miterlimit="10" x1="998.5" y1="930" x2="138.5" y2="930"/>
<line fill="none" stroke="#FFFFFF" stroke-width="7" stroke-miterlimit="10" x1="998.5" y1="1056" x2="128.5" y2="1056"/>
<g>
	<path fill="#FFFFFF" d="M287.276,981.688l-13.229-14.528c-1.19-1.307-2.739-2.228-4.455-2.644l-8.229-2.018l-9.777-9.047
		l-1.697-15.246c-0.256-2.279-2.286-3.932-4.602-3.676c-2.294,0.256-3.945,2.318-3.688,4.609l1.882,16.777
		c0.114,0.998,0.576,1.921,1.304,2.6l14.209,13.15l-5.827,24.102l-15.374-0.371c-1.773-0.071-3.573,0.711-4.789,2.062
		l-14.983,16.591c-2.316,2.566-2.112,6.511,0.448,8.829c2.554,2.312,6.519,2.112,8.835-0.448l13.058-14.465l10.588,0.256
		l-6.214,8.875c-0.962,1.363-1.334,3.054-1.038,4.693l3.983,22.167c0.543,3.021,3.175,5.149,6.146,5.149
		c0.365,0,0.744-0.033,1.107-0.104c3.401-0.609,5.668-3.854,5.052-7.262l-3.521-19.6l11.424-16.301
		c0.409-0.596,0.748-1.229,0.92-1.908c1.473-5.936,5.737-23.762,5.737-23.762l5.22,5.667l-2.518,15.13
		c-0.384,2.267,1.152,4.411,3.419,4.789c0.237,0.039,0.46,0.059,0.692,0.059c2.003,0,3.765-1.441,4.11-3.483l2.848-17.142
		C288.532,983.93,288.148,982.636,287.276,981.688z"/>
	<path fill="#FFFFFF" d="M265.617,960.604c4.384,2.978,10.36,1.832,13.335-2.562c2.978-4.391,1.833-10.365-2.561-13.343
		c-4.391-2.979-10.36-1.831-13.343,2.561C260.077,951.652,261.217,957.626,265.617,960.604z"/>
	<path fill="#FFFFFF" d="M218.271,949.289l21.073-15.424c0.517-0.371,0.728-1.038,0.538-1.646c-0.205-0.609-0.769-1.02-1.409-1.02
		h-68.07c-3.644,0-6.602,2.959-6.602,6.603v113.788c0,0.953,0.64,1.779,1.564,2.021c0.908,0.23,1.875-0.18,2.335-1.011
		l18.063-32.444c0.576-1.037,1-2.151,1.269-3.311l6.242-27.033c0.559-2.395,1.799-4.584,3.58-6.288l11.095-10.629
		c1.915-1.83,3.195-4.212,3.684-6.812l1.678-8.914C213.9,954.008,215.666,951.19,218.271,949.289z"/>
</g>
<g>
	<path fill="#FFFFFF" d="M414.25,991.354c5.199,0,9.418-4.219,9.418-9.419c0-5.199-4.219-9.425-9.418-9.425
		c-5.205,0-9.42,4.226-9.42,9.425C404.83,987.135,409.045,991.354,414.25,991.354z"/>
	<path fill="#FFFFFF" d="M510.307,1044.94c-1.639-1.639-4.301-1.633-5.934,0.006c-1.371,1.371-3.754,1.377-5.131-0.006
		c-2.971-2.959-7.355-3.957-11.32-3.049c-18.768-35.317-18.504-58.574-18.172-63.517l2.82-2.132
		c0.912-0.699,1.098-2.018,0.395-2.939c-0.703-0.921-2.016-1.107-2.943-0.402l-32.836,24.906c-1.27-1.235-3.203-1.619-4.854-0.749
		l-10.654,5.647l-8.055-6.281c-0.955-1.799-2.344-3.055-4.426-3.932c-0.571-0.242-2.497-0.832-4.367-0.403
		c-2.81,0.653-5.37,2.388-6.446,5.288c0,0-7.423,19.735-9.786,26.1c-1.854,5.007,1.834,9.688,5.289,9.688c0.014,0,0.026,0,0.033,0
		l20.253-0.096l6.808,17.16c0.98,2.472,3.348,3.982,5.852,3.982c0.775,0,1.555-0.147,2.318-0.447
		c3.232-1.283,4.813-4.944,3.533-8.178l-8.393-21.162c-0.949-2.395-3.273-3.97-5.854-3.97c-0.014,0-0.02,0-0.033,0l-10.763,0.051
		l5.251-14.01l5.762,4.503c0.75,0.582,1.66,0.889,2.576,0.889c0.678,0,1.35-0.166,1.971-0.486l13.064-6.922
		c0.881-0.468,1.484-1.242,1.842-2.105l29.439-22.327c-0.23,7.689,1.039,29.817,18.342,62.485c-1.342,0.564-2.594,1.357-3.652,2.42
		c-1.35,1.346-3.771,1.346-5.121,0c-4.545-4.552-12.461-4.552-17-0.012c-1.379,1.37-3.766,1.37-5.137,0
		c-1.633-1.639-4.295-1.639-5.938,0c-1.637,1.639-1.637,4.302,0,5.941c4.691,4.688,12.322,4.688,17.008,0
		c1.371-1.37,3.754-1.377,5.137,0c2.266,2.268,5.281,3.522,8.49,3.522s6.225-1.255,8.504-3.528c1.369-1.371,3.752-1.377,5.135,0.006
		c4.682,4.688,12.297,4.688,16.992-0.006C511.947,1049.236,511.947,1046.579,510.307,1044.94z"/>
	<path fill="#FFFFFF" d="M409.332,1036.014h-19.388c-1.652,0-2.983,1.347-2.983,2.985v12.396c0,1.651,1.331,2.983,2.983,2.983
		h19.388c1.645,0,2.982-1.332,2.982-2.983v-12.396C412.314,1037.36,410.977,1036.014,409.332,1036.014z"/>
</g>
<g>
	<path fill="#FFFFFF" d="M885.291,997.277c4.98,0,9.02-4.041,9.02-9.022s-4.039-9.016-9.02-9.016c-4.976,0-9.022,4.034-9.022,9.016
		S880.315,997.277,885.291,997.277z"/>
	<path fill="#FFFFFF" d="M889.063,1042.743c5.576-2.482,12.535-1.646,17.094,2.614l0.102-0.09c5.963-5.462,15.177-5.43,21.094,0.097
		c3.981-3.716,9.771-4.808,14.879-3.413c8.506-5.73,13.615-13.051,13.615-21.041c0-2.445-0.506-4.833-1.437-7.131
		c-0.448-1.09-1.343-1.924-2.458-2.289c-1.113-0.365-2.338-0.209-3.336,0.404c-13.336,8.286-31.495,13.465-51.602,13.703
		L889.063,1042.743z"/>
	<path fill="#FFFFFF" d="M956.678,1048.577c-1.571-1.567-4.111-1.567-5.688,0c-1.305,1.313-3.599,1.313-4.902,0.005
		c-4.35-4.353-11.925-4.365-16.284,0c-1.313,1.309-3.587,1.32-4.912-0.012c-4.403-4.403-11.55-4.48-16.045-0.218l-0.237,0.229
		c-1.313,1.309-3.592,1.313-4.912-0.012c-4.341-4.341-11.92-4.341-16.268,0.012c-1.313,1.309-3.594,1.309-4.912-0.005
		c-0.141-0.135-0.27-0.261-0.41-0.39l17.109-36.901l4.276-2.267c1.966-1.038,2.715-3.463,1.679-5.429
		c-0.386-0.726-0.957-1.28-1.621-1.646l6.052-13.043c0.46-1.006,0.024-2.203-0.981-2.67c-1.005-0.475-2.202-0.026-2.662,0.973
		l-7.018,15.139l-9.419,4.98l-7.633-5.969c-0.73-2.043-4.246-5.104-8.694-4.186c-2.638,0.537-4.957,2.343-5.974,5.043l-6.726,17.947
		c-6.631-2.182-12.684-4.975-17.972-8.26c-0.999-0.619-2.22-0.76-3.336-0.401c-1.119,0.356-2.016,1.197-2.466,2.286
		c-0.927,2.297-1.433,4.68-1.433,7.125c0,7.961,5.083,15.252,13.54,20.977c5.118-1.491,10.829-0.37,14.952,3.478
		c3.381-3.157,8.088-4.413,12.576-3.876l7.632-16.461c-2.637-0.255-5.226-0.602-7.767-1.018l4.891-13.056l5.52,4.31
		c0.725,0.563,1.595,0.846,2.474,0.846c0.644,0,1.284-0.155,1.876-0.463l2.366-1.255l-14.701,31.701
		c-4.148-1.581-9.167-0.756-12.42,2.489c-1.307,1.309-3.574,1.32-4.903-0.005c-4.484-4.482-11.789-4.487-16.277,0
		c-1.306,1.313-3.599,1.313-4.904,0c-1.574-1.567-4.118-1.567-5.688,0c-1.574,1.569-1.574,4.118,0,5.681
		c4.343,4.353,11.937,4.348,16.277,0.006c1.358-1.365,3.559-1.353,4.917,0.006c2.17,2.171,5.059,3.368,8.132,3.368
		c3.074,0,5.962-1.197,8.146-3.38c1.305-1.307,3.584-1.314,4.902,0.006c4.369,4.355,11.937,4.347,16.277,0
		c1.32-1.313,3.605-1.313,4.903-0.006c4.292,4.274,11.694,4.364,16.061,0.229l0.23-0.229c1.308-1.307,3.585-1.318,4.919,0.006
		c4.341,4.347,11.908,4.355,16.276-0.006c1.305-1.307,3.59-1.314,4.903,0.006c4.354,4.347,11.937,4.347,16.277-0.006
		C958.254,1052.695,958.254,1050.146,956.678,1048.577z"/>
</g>
<g>
	<path fill="#FFFFFF" d="M691.464,967.62c5.314,3.124,12.159,1.344,15.276-3.971c3.125-5.314,1.358-12.152-3.958-15.277
		c-5.325-3.125-12.158-1.346-15.277,3.97C684.382,957.656,686.148,964.495,691.464,967.62z"/>
	<path fill="#FFFFFF" d="M709.699,1006.063c-0.607,0-1.218,0.045-1.813,0.09l-3.655-18.146l1.191-0.442
		c2.703-1.006,4.076-4.014,3.06-6.722c-1.011-2.71-4.033-4.08-6.717-3.068l-13.132,4.918l-0.59-4.783
		c1.601-3.342,1.41-7.542-1.202-10.508c-5.379-6.107-11.937-3.168-13.983-1.51l-27.072,21.923v0.007
		c-0.838,0.735-1.544,1.645-1.991,2.746c-0.558,1.37-0.659,2.805-0.396,4.149c-2.152,0.167-3.861,1.921-3.861,4.118
		c0,2.299,1.854,4.166,4.16,4.174l-1.72,4.028c-2.187-0.622-4.478-0.974-6.859-0.974c-13.779,0-24.997,11.205-24.997,24.983
		c0,13.786,11.218,24.997,24.997,24.997c13.778,0,24.991-11.211,24.991-24.997c0-9.169-4.988-17.187-12.379-21.539l2.782-6.492
		h4.493l15.277,6.198l-8.158,13.369c-2.105,3.443-1.01,7.945,2.433,10.053c1.194,0.724,2.505,1.068,3.805,1.068
		c2.458,0,4.865-1.248,6.249-3.502l7.426-12.191l4.838,2.92c-1.379,3.1-2.16,6.518-2.16,10.116
		c0,13.786,11.207,24.997,24.985,24.997c13.785,0,24.997-11.211,24.997-24.997C734.696,1017.269,723.484,1006.063,709.699,1006.063z
		 M635.117,1049.775c-10.32,0-18.728-8.4-18.728-18.729c0-10.321,8.407-18.723,18.728-18.723c1.505,0,2.953,0.231,4.353,0.564
		l-5.185,12.14c-2.985,0.41-5.282,2.934-5.282,6.019c0,3.381,2.74,6.122,6.114,6.122c2.214,0,4.148-1.204,5.211-2.983h13.19
		C652.022,1043.021,644.37,1049.775,635.117,1049.775z M653.519,1027.916h-13.19c-0.087-0.147-0.177-0.301-0.28-0.44l5.187-12.128
		C649.563,1018.139,652.629,1022.646,653.519,1027.916z M685.303,1012.665l1.948-3.182c1.112-1.833,1.37-4.061,0.702-6.104
		c-0.677-2.042-2.216-3.682-4.199-4.487l-13.354-5.418l8.22-6.659l0.455,3.727c0.192,1.588,1.107,2.996,2.478,3.829
		c0.82,0.5,1.769,0.755,2.701,0.755c0.622,0,1.242-0.115,1.833-0.332l12.194-4.559l3.455,17.146
		c-4.625,1.563-8.646,4.438-11.616,8.189L685.303,1012.665z M705.224,1024.688l-9.63-5.814c1.998-2.311,4.509-4.129,7.401-5.25
		L705.224,1024.688z M709.699,1049.775c-10.322,0-18.722-8.4-18.722-18.729c0-2.413,0.5-4.706,1.337-6.831l11.282,6.813
		c0,0.006-0.007,0.019-0.007,0.019c0,3.381,2.741,6.122,6.109,6.122c3.381,0,6.114-2.741,6.114-6.122
		c0-2.65-1.703-4.885-4.066-5.729l-2.605-12.928c0.186-0.014,0.365-0.065,0.558-0.065c10.327,0,18.727,8.401,18.727,18.723
		C728.426,1041.375,720.026,1049.775,709.699,1049.775z"/>
</g>
<text transform="matrix(1 0 0 1 190.0059 455.7344)" fill="#FFFFFF" font-family="'ARDARLING'" font-size="319.0587">WeGo</text>
<line fill="none" stroke="#FFFFFF" stroke-width="7" stroke-miterlimit="10" x1="1056.5" y1="196" x2="196.5" y2="196"/>
<g>
	<path fill="#FFFFFF" d="M1426.999,342.333l2.848,17.142c0.346,2.042,2.107,3.483,4.111,3.483c0.231,0,0.455-0.02,0.691-0.059
		c2.268-0.378,3.803-2.522,3.42-4.789l-2.518-15.13l5.219-5.667c0,0,4.266,17.826,5.738,23.762c0.172,0.679,0.512,1.313,0.92,1.908
		l11.424,16.301l-3.521,19.6c-0.615,3.407,1.651,6.652,5.053,7.262c0.363,0.07,0.742,0.104,1.107,0.104
		c2.971,0,5.602-2.128,6.145-5.149l3.983-22.167c0.296-1.64-0.076-3.33-1.038-4.693l-6.215-8.875l10.588-0.256l13.059,14.465
		c2.316,2.561,6.281,2.76,8.835,0.448c2.561-2.318,2.765-6.263,0.448-8.829l-14.982-16.591c-1.217-1.351-3.016-2.133-4.789-2.062
		l-15.375,0.371l-5.826-24.102l14.209-13.15c0.729-0.679,1.191-1.602,1.305-2.6l1.883-16.777c0.256-2.291-1.395-4.354-3.689-4.609
		c-2.316-0.256-4.346,1.396-4.602,3.676l-1.697,15.246l-9.777,9.047l-8.229,2.018c-1.716,0.416-3.264,1.337-4.455,2.644
		l-13.229,14.528C1427.171,339.778,1426.786,341.072,1426.999,342.333z"/>
	<path fill="#FFFFFF" d="M1452.27,304.402c-2.983-4.392-8.952-5.539-13.343-2.561c-4.393,2.978-5.538,8.952-2.561,13.343
		c2.976,4.394,8.951,5.539,13.336,2.562C1454.102,314.769,1455.241,308.795,1452.27,304.402z"/>
</g>
<g>
	<path fill="#FFFFFF" d="M469.82,133.746c5.199,0,9.418-4.219,9.418-9.419c0-5.199-4.219-9.425-9.418-9.425
		c-5.205,0-9.42,4.226-9.42,9.425C460.4,129.527,464.615,133.746,469.82,133.746z"/>
	<path fill="#FFFFFF" d="M565.877,187.333c-1.639-1.639-4.301-1.633-5.934,0.006c-1.371,1.371-3.754,1.377-5.131-0.006
		c-2.971-2.959-7.355-3.957-11.32-3.049c-18.768-35.317-18.504-58.574-18.172-63.517l2.82-2.132
		c0.912-0.699,1.098-2.018,0.395-2.939c-0.703-0.921-2.016-1.107-2.943-0.402L492.756,140.2c-1.27-1.235-3.203-1.619-4.854-0.749
		l-10.654,5.647l-8.055-6.281c-0.955-1.799-2.344-3.055-4.426-3.932c-0.571-0.242-2.497-0.832-4.367-0.403
		c-2.81,0.653-5.37,2.388-6.446,5.288c0,0-7.423,19.735-9.786,26.1c-1.854,5.007,1.834,9.688,5.289,9.688c0.014,0,0.026,0,0.033,0
		l20.253-0.096l6.808,17.16c0.98,2.472,3.348,3.982,5.852,3.982c0.775,0,1.555-0.147,2.318-0.447
		c3.232-1.283,4.813-4.944,3.533-8.178l-8.393-21.162c-0.949-2.395-3.273-3.97-5.854-3.97c-0.014,0-0.02,0-0.033,0l-10.763,0.051
		l5.251-14.01l5.762,4.503c0.75,0.582,1.66,0.889,2.576,0.889c0.678,0,1.35-0.166,1.971-0.486l13.064-6.922
		c0.881-0.468,1.484-1.242,1.842-2.105l29.439-22.327c-0.23,7.689,1.039,29.817,18.342,62.485c-1.342,0.564-2.594,1.357-3.652,2.42
		c-1.35,1.346-3.771,1.346-5.121,0c-4.545-4.552-12.461-4.552-17-0.012c-1.379,1.37-3.766,1.37-5.137,0
		c-1.633-1.639-4.295-1.639-5.938,0c-1.637,1.639-1.637,4.302,0,5.941c4.691,4.688,12.322,4.688,17.008,0
		c1.371-1.37,3.754-1.377,5.137,0c2.266,2.268,5.281,3.522,8.49,3.522s6.225-1.255,8.504-3.528c1.369-1.371,3.752-1.377,5.135,0.006
		c4.682,4.688,12.297,4.688,16.992-0.006C567.518,191.629,567.518,188.972,565.877,187.333z"/>
	<path fill="#FFFFFF" d="M464.902,178.406h-19.388c-1.652,0-2.983,1.347-2.983,2.985v12.396c0,1.651,1.331,2.983,2.983,2.983h19.388
		c1.645,0,2.982-1.332,2.982-2.983v-12.396C467.885,179.753,466.547,178.406,464.902,178.406z"/>
</g>
<g>
	<path fill="#FFFFFF" d="M942.034,140.067c4.98,0,9.02-4.041,9.02-9.022s-4.039-9.016-9.02-9.016c-4.976,0-9.022,4.034-9.022,9.016
		S937.059,140.067,942.034,140.067z"/>
	<path fill="#FFFFFF" d="M945.806,185.533c5.576-2.482,12.535-1.646,17.094,2.614l0.102-0.09c5.963-5.462,15.177-5.43,21.094,0.097
		c3.981-3.716,9.771-4.808,14.879-3.413c8.506-5.73,13.615-13.051,13.615-21.041c0-2.445-0.506-4.833-1.437-7.131
		c-0.448-1.09-1.343-1.924-2.458-2.289c-1.113-0.365-2.338-0.209-3.336,0.404c-13.336,8.286-31.495,13.465-51.602,13.703
		L945.806,185.533z"/>
	<path fill="#FFFFFF" d="M1013.421,191.367c-1.571-1.567-4.111-1.567-5.688,0c-1.305,1.313-3.599,1.313-4.902,0.005
		c-4.35-4.353-11.925-4.365-16.284,0c-1.313,1.309-3.587,1.32-4.912-0.012c-4.403-4.403-11.55-4.48-16.045-0.218l-0.237,0.229
		c-1.313,1.309-3.592,1.313-4.912-0.012c-4.341-4.341-11.92-4.341-16.268,0.012c-1.313,1.309-3.594,1.309-4.912-0.005
		c-0.141-0.135-0.27-0.261-0.41-0.39l17.109-36.901l4.276-2.267c1.966-1.038,2.715-3.463,1.679-5.429
		c-0.386-0.726-0.957-1.28-1.621-1.646l6.052-13.043c0.46-1.006,0.024-2.203-0.981-2.67c-1.005-0.475-2.202-0.026-2.662,0.973
		l-7.018,15.139l-9.419,4.98l-7.633-5.969c-0.73-2.043-4.246-5.104-8.694-4.186c-2.638,0.537-4.957,2.343-5.974,5.043l-6.726,17.947
		c-6.631-2.182-12.684-4.975-17.972-8.26c-0.999-0.619-2.22-0.76-3.336-0.401c-1.119,0.356-2.016,1.197-2.466,2.286
		c-0.927,2.297-1.433,4.68-1.433,7.125c0,7.961,5.083,15.252,13.54,20.977c5.118-1.491,10.829-0.37,14.952,3.478
		c3.381-3.157,8.088-4.413,12.576-3.876l7.632-16.461c-2.637-0.255-5.226-0.602-7.767-1.018l4.891-13.056l5.52,4.31
		c0.725,0.563,1.595,0.846,2.474,0.846c0.644,0,1.284-0.155,1.876-0.463l2.366-1.255l-14.701,31.701
		c-4.148-1.581-9.167-0.756-12.42,2.489c-1.307,1.309-3.574,1.32-4.903-0.005c-4.484-4.482-11.789-4.487-16.277,0
		c-1.306,1.313-3.599,1.313-4.904,0c-1.574-1.567-4.118-1.567-5.688,0c-1.574,1.569-1.574,4.118,0,5.681
		c4.343,4.353,11.937,4.348,16.277,0.006c1.358-1.365,3.559-1.353,4.917,0.006c2.17,2.171,5.059,3.368,8.132,3.368
		c3.074,0,5.962-1.197,8.146-3.38c1.305-1.307,3.584-1.314,4.902,0.006c4.369,4.355,11.937,4.347,16.277,0
		c1.32-1.313,3.605-1.313,4.903-0.006c4.292,4.274,11.694,4.364,16.061,0.229l0.23-0.229c1.308-1.307,3.585-1.318,4.919,0.006
		c4.341,4.347,11.908,4.355,16.276-0.006c1.305-1.307,3.59-1.314,4.903,0.006c4.354,4.347,11.937,4.347,16.277-0.006
		C1014.997,195.485,1014.997,192.937,1013.421,191.367z"/>
</g>
<g>
	<path fill="#FFFFFF" d="M760.018,112.08c5.314,3.124,12.159,1.344,15.276-3.971c3.125-5.314,1.358-12.152-3.958-15.277
		c-5.325-3.125-12.158-1.346-15.277,3.97C752.936,102.116,754.702,108.955,760.018,112.08z"/>
	<path fill="#FFFFFF" d="M778.253,150.523c-0.607,0-1.218,0.045-1.813,0.09l-3.655-18.146l1.191-0.442
		c2.703-1.006,4.076-4.014,3.06-6.722c-1.011-2.71-4.033-4.08-6.717-3.068l-13.132,4.918l-0.59-4.783
		c1.601-3.342,1.41-7.542-1.202-10.508c-5.379-6.107-11.937-3.168-13.983-1.51l-27.072,21.923v0.007
		c-0.838,0.735-1.544,1.645-1.991,2.746c-0.558,1.37-0.659,2.805-0.396,4.149c-2.152,0.167-3.861,1.921-3.861,4.118
		c0,2.299,1.854,4.166,4.16,4.174l-1.72,4.028c-2.187-0.622-4.478-0.974-6.859-0.974c-13.779,0-24.997,11.205-24.997,24.983
		c0,13.786,11.218,24.997,24.997,24.997c13.778,0,24.991-11.211,24.991-24.997c0-9.169-4.988-17.187-12.379-21.539l2.782-6.492
		h4.493l15.277,6.198l-8.158,13.369c-2.105,3.443-1.01,7.945,2.433,10.053c1.194,0.724,2.505,1.068,3.805,1.068
		c2.458,0,4.865-1.248,6.249-3.502l7.426-12.191l4.838,2.92c-1.379,3.1-2.16,6.518-2.16,10.116
		c0,13.786,11.207,24.997,24.985,24.997c13.785,0,24.997-11.211,24.997-24.997C803.25,161.729,792.038,150.523,778.253,150.523z
		 M703.671,194.235c-10.32,0-18.728-8.4-18.728-18.729c0-10.321,8.407-18.723,18.728-18.723c1.505,0,2.953,0.231,4.353,0.564
		l-5.185,12.14c-2.985,0.41-5.282,2.934-5.282,6.019c0,3.381,2.74,6.122,6.114,6.122c2.214,0,4.148-1.204,5.211-2.983h13.19
		C720.576,187.48,712.924,194.235,703.671,194.235z M722.072,172.376h-13.19c-0.087-0.147-0.177-0.301-0.28-0.44l5.187-12.128
		C718.117,162.599,721.183,167.106,722.072,172.376z M753.856,157.125l1.948-3.182c1.112-1.833,1.37-4.061,0.702-6.104
		c-0.677-2.042-2.216-3.682-4.199-4.487l-13.354-5.418l8.22-6.659l0.455,3.727c0.192,1.588,1.107,2.996,2.478,3.829
		c0.82,0.5,1.769,0.755,2.701,0.755c0.622,0,1.242-0.115,1.833-0.332l12.194-4.559l3.455,17.146
		c-4.625,1.563-8.646,4.438-11.616,8.189L753.856,157.125z M773.777,169.148l-9.63-5.814c1.998-2.311,4.509-4.129,7.401-5.25
		L773.777,169.148z M778.253,194.235c-10.322,0-18.722-8.4-18.722-18.729c0-2.413,0.5-4.706,1.337-6.831l11.282,6.813
		c0,0.006-0.007,0.019-0.007,0.019c0,3.381,2.741,6.122,6.109,6.122c3.381,0,6.114-2.741,6.114-6.122
		c0-2.65-1.703-4.885-4.066-5.729l-2.605-12.928c0.186-0.014,0.365-0.065,0.558-0.065c10.327,0,18.727,8.401,18.727,18.723
		C796.979,185.835,788.58,194.235,778.253,194.235z"/>
</g>
<text transform="matrix(1 0 0 1 1448.0059 455.7344)" fill="#FFFFFF" font-family="'ARDARLING'" font-size="319.0587">WeGo</text>
<g>
	<path fill="#FFFFFF" d="M1767.82,190c5.199,0,9.418-4.219,9.418-9.419c0-5.199-4.219-9.425-9.418-9.425
		c-5.205,0-9.42,4.226-9.42,9.425C1758.4,185.782,1762.615,190,1767.82,190z"/>
	<path fill="#FFFFFF" d="M1839,259c-18.768-35.317-16.012-77.036-15.68-81.978l2.82-2.132c0.912-0.699,1.098-2.018,0.395-2.939
		c-0.703-0.921-2.016-1.107-2.943-0.402l-32.836,24.906c-1.27-1.235-3.203-1.619-4.854-0.749l-10.654,5.647l-8.055-6.281
		c-0.955-1.799-2.344-3.055-4.426-3.932c-0.571-0.242-2.497-0.832-4.367-0.403c-2.81,0.653-5.37,2.388-6.446,5.288
		c0,0-7.423,19.735-9.786,26.1c-1.854,5.007,1.834,9.688,5.289,9.688c0.014,0,0.026,0,0.033,0l20.253-0.096l6.808,17.16
		c0.98,2.472,3.348,3.982,5.852,3.982c0.775,0,1.555-0.147,2.318-0.447c3.232-1.283,4.813-4.944,3.533-8.178l-8.393-21.162
		c-0.949-2.395-3.273-3.97-5.854-3.97c-0.014,0-0.02,0-0.033,0l-10.763,0.051l5.251-14.01l5.762,4.503
		c0.75,0.582,1.66,0.889,2.576,0.889c0.678,0,1.35-0.166,1.971-0.486l13.064-6.922c0.881-0.468,1.484-1.242,1.842-2.105
		l29.439-22.327c-0.23,7.689-1.453,48.279,15.85,80.947L1839,259z"/>
</g>
<g>
	<path fill="#FFFFFF" d="M1354.372-219.642c4.98,0,9.02-4.041,9.02-9.022s-4.039-9.016-9.02-9.016c-4.976,0-9.022,4.034-9.022,9.016
		S1349.396-219.642,1354.372-219.642z"/>
	<path fill="#FFFFFF" d="M1358.144-174.176c5.576-2.482,12.535-1.646,17.094,2.614l0.102-0.09c5.963-5.462,15.177-5.43,21.094,0.097
		c3.981-3.716,9.771-4.808,14.879-3.413c8.506-5.73,13.615-13.051,13.615-21.041c0-2.445-0.506-4.833-1.437-7.131
		c-0.448-1.09-1.343-1.924-2.458-2.289c-1.113-0.365-2.338-0.209-3.336,0.404c-13.336,8.286-31.495,13.465-51.602,13.703
		L1358.144-174.176z"/>
	<path fill="#FFFFFF" d="M1425.759-168.342c-1.571-1.567-4.111-1.567-5.688,0c-1.305,1.313-3.599,1.313-4.902,0.005
		c-4.35-4.353-11.925-4.365-16.284,0c-1.313,1.309-3.587,1.32-4.912-0.012c-4.403-4.403-11.55-4.48-16.045-0.218l-0.237,0.229
		c-1.313,1.309-3.592,1.313-4.912-0.012c-4.341-4.341-11.92-4.341-16.268,0.012c-1.313,1.309-3.594,1.309-4.912-0.005
		c-0.141-0.135-0.27-0.261-0.41-0.39l17.109-36.901l4.276-2.267c1.966-1.038,2.715-3.463,1.679-5.429
		c-0.386-0.726-0.957-1.28-1.621-1.646l6.052-13.043c0.46-1.006,0.024-2.203-0.981-2.67c-1.005-0.475-2.202-0.026-2.662,0.973
		l-7.018,15.139l-9.419,4.98l-7.633-5.969c-0.73-2.043-4.246-5.104-8.694-4.186c-2.638,0.537-4.957,2.343-5.974,5.043l-6.726,17.947
		c-6.631-2.182-12.684-4.975-17.972-8.26c-0.999-0.619-2.22-0.76-3.336-0.401c-1.119,0.356-2.016,1.197-2.466,2.286
		c-0.927,2.297-1.433,4.68-1.433,7.125c0,7.961,5.083,15.252,13.54,20.977c5.118-1.491,10.829-0.37,14.952,3.478
		c3.381-3.157,8.088-4.413,12.576-3.876l7.632-16.461c-2.637-0.255-5.226-0.602-7.767-1.018l4.891-13.056l5.52,4.31
		c0.725,0.563,1.595,0.846,2.474,0.846c0.644,0,1.284-0.155,1.876-0.463l2.366-1.255l-14.701,31.701
		c-4.148-1.581-9.167-0.756-12.42,2.489c-1.307,1.309-3.574,1.32-4.903-0.005c-4.484-4.482-11.789-4.487-16.277,0
		c-1.306,1.313-3.599,1.313-4.904,0c-1.574-1.567-4.118-1.567-5.688,0c-1.574,1.569-1.574,4.118,0,5.681
		c4.343,4.353,11.937,4.348,16.277,0.006c1.358-1.365,3.559-1.353,4.917,0.006c2.17,2.171,5.059,3.368,8.132,3.368
		c3.074,0,5.962-1.197,8.146-3.38c1.305-1.307,3.584-1.314,4.902,0.006c4.369,4.355,11.937,4.347,16.277,0
		c1.32-1.313,3.605-1.313,4.903-0.006c4.292,4.274,11.694,4.364,16.061,0.229l0.23-0.229c1.308-1.307,3.585-1.318,4.919,0.006
		c4.341,4.347,11.908,4.355,16.276-0.006c1.305-1.307,3.59-1.314,4.903,0.006c4.354,4.347,11.937,4.347,16.277-0.006
		C1427.335-164.224,1427.335-166.773,1425.759-168.342z"/>
</g>
<g>
	<path fill="#FFFFFF" d="M2034.571,162.183c5.314,3.124,12.159,1.344,15.276-3.971c3.125-5.314,1.358-12.152-3.958-15.277
		c-5.325-3.125-12.158-1.346-15.277,3.97C2027.489,152.219,2029.256,159.058,2034.571,162.183z"/>
	<path fill="#FFFFFF" d="M2052.807,200.626c-0.607,0-1.218,0.045-1.813,0.09l-3.655-18.146l1.191-0.442
		c2.703-1.006,4.076-4.014,3.06-6.722c-1.011-2.71-4.033-4.08-6.717-3.068l-13.132,4.918l-0.59-4.783
		c1.601-3.342,1.41-7.542-1.202-10.508c-5.379-6.107-11.937-3.168-13.983-1.51l-27.072,21.923v0.007
		c-0.838,0.735-1.544,1.645-1.991,2.746c-0.558,1.37-0.659,2.805-0.396,4.149c-2.152,0.167-3.861,1.921-3.861,4.118
		c0,2.299,1.854,4.166,4.16,4.174l-1.72,4.028c-2.187-0.622-4.478-0.974-6.859-0.974c-13.779,0-24.997,11.205-24.997,24.983
		c0,13.786,11.218,24.997,24.997,24.997c13.778,0,24.991-11.211,24.991-24.997c0-9.169-4.988-17.187-12.379-21.539l2.782-6.492
		h4.493l15.277,6.198l-8.158,13.369c-2.105,3.443-1.01,7.945,2.433,10.053c1.194,0.724,2.505,1.068,3.805,1.068
		c2.458,0,4.865-1.248,6.249-3.502l7.426-12.191l4.838,2.92c-1.379,3.1-2.16,6.518-2.16,10.116
		c0,13.786,11.207,24.997,24.985,24.997c13.785,0,24.997-11.211,24.997-24.997C2077.804,211.831,2066.592,200.626,2052.807,200.626z
		 M1978.225,244.338c-10.32,0-18.728-8.4-18.728-18.729c0-10.321,8.407-18.723,18.728-18.723c1.505,0,2.953,0.231,4.353,0.564
		l-5.185,12.14c-2.985,0.41-5.282,2.934-5.282,6.019c0,3.381,2.74,6.122,6.114,6.122c2.214,0,4.148-1.204,5.211-2.983h13.19
		C1995.13,237.583,1987.478,244.338,1978.225,244.338z M1996.626,222.479h-13.19c-0.087-0.147-0.177-0.301-0.28-0.44l5.187-12.128
		C1992.671,212.701,1995.736,217.209,1996.626,222.479z M2028.41,207.228l1.948-3.182c1.112-1.833,1.37-4.061,0.702-6.104
		c-0.677-2.042-2.216-3.682-4.199-4.487l-13.354-5.418l8.22-6.659l0.455,3.727c0.192,1.588,1.107,2.996,2.478,3.829
		c0.82,0.5,1.769,0.755,2.701,0.755c0.622,0,1.242-0.115,1.833-0.332l12.194-4.559l3.455,17.146
		c-4.625,1.563-8.646,4.438-11.616,8.189L2028.41,207.228z M2048.331,219.251l-9.63-5.814c1.998-2.311,4.509-4.129,7.401-5.25
		L2048.331,219.251z M2052.807,244.338c-10.322,0-18.722-8.4-18.722-18.729c0-2.413,0.5-4.706,1.337-6.831l11.282,6.813
		c0,0.006-0.007,0.019-0.007,0.019c0,3.381,2.741,6.122,6.109,6.122c3.381,0,6.114-2.741,6.114-6.122
		c0-2.65-1.703-4.885-4.066-5.729l-2.605-12.928c0.186-0.014,0.365-0.065,0.558-0.065c10.327,0,18.727,8.401,18.727,18.723
		C2071.533,235.938,2063.134,244.338,2052.807,244.338z"/>
</g>
<g>
	<path fill="#FFFFFF" d="M1812.733-207.937c-5.22,1.951-7.874,7.771-5.919,12.994c1.954,5.223,7.777,7.873,12.996,5.918
		c5.227-1.955,7.867-7.771,5.912-12.993C1823.775-207.244,1817.959-209.891,1812.733-207.937z"/>
	<path fill="#FFFFFF" d="M1868.834-145.964c-2.523-0.192-4.636,1.646-4.842,4.129l-0.755,9.643l-8.257,5.534l-12.387-18.489
		c-1.234-1.853-3.306-2.971-5.534-2.998l-12.996-0.123v-5.116c0.699,0.411,1.488,0.658,2.304,0.658c0.453,0,0.905-0.068,1.358-0.212
		l13.991-4.41c2.372-0.748,3.689-3.271,2.941-5.645c-0.747-2.366-3.257-3.687-5.644-2.936l-10.727,3.381l-4.211-6.529v-3.834
		c0-4.955-3.951-8.974-8.964-8.974c-8.189,0-9.197,6.636-9.197,9.015c0,0-0.014,30.047-0.014,31.172c0,3.73,2.963,6.775,6.687,6.816
		l20.781,0.199l10.403,15.549l-12.66,8.504c-2.064,1.385-2.613,4.176-1.234,6.24c0.871,1.29,2.291,1.989,3.745,1.989
		c0.863,0,1.734-0.247,2.503-0.769l33.928-22.77c1.139-0.768,1.866-2.009,1.976-3.374l0.939-11.81
		C1873.162-143.605,1871.317-145.773,1868.834-145.964z"/>
	<path fill="#FFFFFF" d="M1847.697-232.949c-0.892-2.314-3.484-3.48-5.816-2.586l-71.176,27.316
		c-2.318,0.889-3.477,3.491-2.585,5.813c0.686,1.787,2.394,2.888,4.204,2.888c0.534,0,1.076-0.096,1.604-0.298l18.641-7.154v66.711
		c0,10.748,8.737,19.492,19.491,19.492h14.835c2.489,0,4.499-2.017,4.499-4.499c0-2.483-2.01-4.499-4.499-4.499h-14.835
		c-5.788,0-10.493-4.705-10.493-10.494v-70.164l43.537-16.713C1847.423-228.025,1848.589-230.627,1847.697-232.949z"/>
</g>
<g>
	<path fill="#FFFFFF" d="M2236.954,446.136c-5.22,1.951-7.874,7.771-5.919,12.994c1.954,5.223,7.777,7.873,12.996,5.918
		c5.227-1.955,7.867-7.771,5.912-12.993C2247.996,446.829,2242.18,444.182,2236.954,446.136z"/>
	<path fill="#FFFFFF" d="M2293.055,508.108c-2.523-0.192-4.636,1.646-4.842,4.129l-0.755,9.643l-8.257,5.534l-12.387-18.489
		c-1.234-1.853-3.306-2.971-5.534-2.998l-12.996-0.123v-5.116c0.699,0.411,1.488,0.658,2.304,0.658c0.453,0,0.905-0.068,1.358-0.212
		l13.991-4.41c2.372-0.748,3.689-3.271,2.941-5.645c-0.747-2.366-3.257-3.687-5.644-2.936l-10.727,3.381l-4.211-6.529v-3.834
		c0-4.955-3.951-8.974-8.964-8.974c-8.189,0-9.197,6.636-9.197,9.015c0,0-0.014,30.047-0.014,31.172c0,3.73,2.963,6.775,6.687,6.816
		l20.781,0.199l10.403,15.549l-12.66,8.504c-2.064,1.385-2.613,4.176-1.234,6.24c0.871,1.29,2.291,1.989,3.745,1.989
		c0.863,0,1.734-0.247,2.503-0.769l33.928-22.77c1.139-0.768,1.866-2.009,1.976-3.374l0.939-11.81
		C2297.383,510.468,2295.538,508.3,2293.055,508.108z"/>
	<path fill="#FFFFFF" d="M2216.79,432.203v81.61c0,10.748,8.737,19.492,19.491,19.492h14.835c2.489,0,4.499-2.017,4.499-4.499
		c0-2.483-2.01-4.499-4.499-4.499h-14.835c-5.788,0-10.493-4.705-10.493-10.494V428.75L2216.79,432.203z"/>
</g>
<text transform="matrix(1 0 0 1 1448.0059 1015.7344)" fill="#FFFFFF" font-family="'BerlinSansFBDemi-Bold'" font-size="319.0587">WeGo</text>
</svg>
